HIERARCHY
ROOT Hips
{
	OFFSET 0.00000 0.00000 0.00000
	CHANNELS 6 Xposition Yposition Zposition Zrotation Yrotation Xrotation 
	JOINT LHipJoint
	{
		OFFSET 0 0 0
		CHANNELS 3 Zrotation Yrotation Xrotation
		JOINT LeftUpLeg
		{
			OFFSET 1.30186 -1.90722 0.65024
			CHANNELS 3 Zrotation Yrotation Xrotation
			JOINT LeftLeg
			{
				OFFSET 2.56413 -7.04489 0.00000
				CHANNELS 3 Zrotation Yrotation Xrotation
				JOINT LeftFoot
				{
					OFFSET 2.79321 -7.67428 0.00000
					CHANNELS 3 Zrotation Yrotation Xrotation
					JOINT LeftToeBase
					{
						OFFSET 0.15723 -0.43198 2.08537
						CHANNELS 3 Zrotation Yrotation Xrotation
						End Site
						{
							OFFSET 0.00000 -0.00000 1.07411
						}
					}
				}
			}
		}
	}
	JOINT RHipJoint
	{
		OFFSET 0 0 0
		CHANNELS 3 Zrotation Yrotation Xrotation
		JOINT RightUpLeg
		{
			OFFSET -1.28627 -1.90723 0.65024
			CHANNELS 3 Zrotation Yrotation Xrotation
			JOINT RightLeg
			{
				OFFSET -2.56567 -7.04913 0.00000
				CHANNELS 3 Zrotation Yrotation Xrotation
				JOINT RightFoot
				{
					OFFSET -2.75597 -7.57198 0.00000
					CHANNELS 3 Zrotation Yrotation Xrotation
					JOINT RightToeBase
					{
						OFFSET -0.17500 -0.48081 2.22901
						CHANNELS 3 Zrotation Yrotation Xrotation
						End Site
						{
							OFFSET -0.00000 -0.00000 1.14762
						}
					}
				}
			}
		}
	}
	JOINT LowerBack
	{
		OFFSET 0 0 0
		CHANNELS 3 Zrotation Yrotation Xrotation
		JOINT Spine
		{
			OFFSET -0.04522 2.07467 -0.16566
			CHANNELS 3 Zrotation Yrotation Xrotation
			JOINT Spine1
			{
				OFFSET -0.01178 2.08825 -0.05393
				CHANNELS 3 Zrotation Yrotation Xrotation
				JOINT Neck
				{
					OFFSET 0 0 0
					CHANNELS 3 Zrotation Yrotation Xrotation
					JOINT Neck1
					{
						OFFSET -0.05182 1.80489 0.16014
						CHANNELS 3 Zrotation Yrotation Xrotation
						JOINT Head
						{
							OFFSET 0.14739 1.78840 -0.33342
							CHANNELS 3 Zrotation Yrotation Xrotation
							End Site
							{
								OFFSET 0.04364 1.83899 -0.13460
							}
						}
					}
				}
				JOINT LeftShoulder
				{
					OFFSET 0 0 0
					CHANNELS 3 Zrotation Yrotation Xrotation
					JOINT LeftArm
					{
						OFFSET 3.01264 1.29090 -0.06579
						CHANNELS 3 Zrotation Yrotation Xrotation
						JOINT LeftForeArm
						{
							OFFSET 5.55680 -0.00000 0.00000
							CHANNELS 3 Zrotation Yrotation Xrotation
							JOINT LeftHand
							{
								OFFSET 3.63979 -0.00000 -0.00000
								CHANNELS 3 Zrotation Yrotation Xrotation
								JOINT LeftFingerBase
								{
									OFFSET 0 0 0
									CHANNELS 3 Zrotation Yrotation Xrotation
									JOINT LeftHandIndex1
									{
										OFFSET 0.56942 -0.00000 -0.00000
										CHANNELS 3 Zrotation Yrotation Xrotation
										End Site
										{
											OFFSET 0.45908 -0.00000 -0.00000
										}
									}
								}
								JOINT LThumb
								{
									OFFSET 0 0 0
									CHANNELS 3 Zrotation Yrotation Xrotation
									End Site
									{
										OFFSET 0.46609 -0.00000 0.46609
									}
								}
							}
						}
					}
				}
				JOINT RightShoulder
				{
					OFFSET 0 0 0
					CHANNELS 3 Zrotation Yrotation Xrotation
					JOINT RightArm
					{
						OFFSET -3.15796 1.37283 -0.36748
						CHANNELS 3 Zrotation Yrotation Xrotation
						JOINT RightForeArm
						{
							OFFSET -5.34339 -0.00000 0.00000
							CHANNELS 3 Zrotation Yrotation Xrotation
							JOINT RightHand
							{
								OFFSET -3.65101 -0.00000 -0.00000
								CHANNELS 3 Zrotation Yrotation Xrotation
								JOINT RightFingerBase
								{
									OFFSET 0 0 0
									CHANNELS 3 Zrotation Yrotation Xrotation
									JOINT RightHandIndex1
									{
										OFFSET -0.69425 -0.00000 -0.00000
										CHANNELS 3 Zrotation Yrotation Xrotation
										End Site
										{
											OFFSET -0.55972 -0.00000 -0.00000
										}
									}
								}
								JOINT RThumb
								{
									OFFSET 0 0 0
									CHANNELS 3 Zrotation Yrotation Xrotation
									End Site
									{
										OFFSET -0.56827 -0.00000 0.56827
									}
								}
							}
						}
					}
				}
			}
		}
	}
}
MOTION
Frames: 8
Frame Time: .0083333
12.9134 18.1302 -19.0056 0 0 0 0 0 0 -21 0 0 0 0 0 0 0 0 0 0 0 0 0 0 21 0 0 0 0 0 0 0 0 0 0 0 0 0 0 0 0 0 0 0 0 0 0 -16 0 0 21 0 0 11 0 0 0 -8 0 0 0 0 0 0 0 0 0 0 0 0 0 0 0 0 0 0 0 0 8 0 0 0 0 0 0 0 0 0 0 0 0 0 0 0 0 0
12.9134 18.1302 -19.0056 8.7205 0.4718 0.3793 0.0000 0.0000 0.0000 -30.4770 -2.2088 0.3505 1.2578 7.1096 20.0405 0.4205 -5.0266 -11.5605 0.6687 -5.2293 -14.5637 0.0000 0.0000 0.0000 6.4773 9.3079 -25.0981 -3.8088 -11.9016 35.3847 0.0432 -9.3965 -12.6049 -0.0459 -1.3831 3.8037 -9.8134 0.2397 2.2831 -1.7787 0.1513 1.6166 3.6484 0.0073 0.3808 -2.4795 -1.9380 -16.6805 0.4224 -2.1297 21.8301 0.2807 -1.1459 9.7051 0.0000 -0.0000 0.0000 -84.2202 -5.3831 32.0880 27.0517 -38.2285 -9.5311 -0.0000 0.0000 -16.1108 29.0353 21.2948 11.3980 -7.1250 0.0000 -0.0000 0.3725 54.0070 0.0825 0.0000 -0.0000 0.0000 89.1067 -4.1557 9.0372 -16.5637 26.2790 -3.8922 0.0000 -0.0000 -1.2697 -16.8681 29.2564 -8.4291 7.1250 -0.0000 -0.0000 8.0962 0.0969 8.1920
12.9062 18.1585 -18.8454 8.9768 0.6917 0.6128 0.0000 0.0000 0.0000 -30.6996 -1.9836 1.3215 1.0992 6.6619 18.7176 0.3818 -4.8267 -11.0154 0.7921 -5.6811 -15.8619 0.0000 0.0000 0.0000 5.9707 10.1613 -24.9103 -3.2727 -11.1240 32.6991 0.1835 -10.4177 -11.4344 -0.0059 -0.4962 1.3635 -9.9703 0.2027 2.0187 -1.9238 0.0875 0.9985 3.5863 0.0164 -0.1066 -1.8479 -1.9049 -13.9650 -0.1049 -2.1867 20.8612 0.0181 -1.1839 8.8500 0.0000 0.0000 0.0000 -83.9804 -4.1756 32.6289 28.3982 -39.4802 -10.3759 -0.0000 0.0000 -16.5812 29.3762 21.4231 11.6186 -7.1250 0.0000 -0.0000 0.7079 54.2182 0.1604 0.0000 0.0000 0.0000 89.2189 -5.4715 9.2801 -16.8423 26.6494 -4.0164 0.0000 -0.0000 -2.1089 -16.8738 29.0458 -8.3775 7.1250 -0.0000 -0.0000 8.0721 -0.1139 8.1373
12.9008 18.1628 -18.6804 9.1793 0.9200 0.7935 0.0000 0.0000 0.0000 -30.8599 -1.6123 2.3845 0.9560 6.2262 17.4421 0.3485 -4.8750 -10.5427 0.6907 -5.3131 -14.8038 0.0000 0.0000 0.0000 5.4464 11.3296 -24.5294 -2.7801 -10.3302 30.0529 0.2120 -11.3125 -12.5203 -0.0619 -1.6053 4.4160 -10.1420 -0.1360 2.1822 -1.7566 -0.3769 1.1212 3.8650 -0.2246 -0.0045 -2.9593 -1.9219 -15.7566 0.5290 -2.0353 21.9872 0.4176 -1.1339 9.5940 0.0000 0.0000 0.0000 -84.1989 -4.8032 32.0567 29.4990 -40.4601 -11.0831 -0.0000 0.0000 -17.1699 29.8737 21.5523 11.9153 -7.1250 0.0000 -0.0000 1.2138 54.4644 0.2823 0.0000 0.0000 0.0000 88.6909 -4.7668 9.8915 -16.9302 26.7657 -4.0559 0.0000 -0.0000 -2.1345 -16.9564 29.2442 -8.4721 7.1250 -0.0000 -0.0000 8.0436 0.0997 8.1381
12.8960 18.1621 -18.5093 9.4432 1.0572 0.9628 0.0000 0.0000 0.0000 -31.0638 -1.0003 3.3302 0.8292 5.8095 16.2328 0.3076 -4.9680 -9.9406 0.7351 -5.4776 -15.2759 0.0000 0.0000 0.0000 4.8499 12.4873 -24.0625 -2.3077 -9.4796 27.3073 0.2831 -12.3735 -13.1422 -0.0405 -1.2997 3.5738 -10.3489 -0.0782 1.8794 -1.8801 -0.2912 0.7694 3.8492 -0.1608 -0.2130 -3.2071 -2.1352 -14.5286 0.9802 -2.4250 22.1725 0.5762 -1.2902 9.4457 -0.0000 -0.0000 0.0000 -83.8643 -4.3948 32.9479 30.5668 -41.3743 -11.7825 -0.0000 0.0000 -17.7879 30.1335 21.2976 11.9054 -7.1250 0.0000 -0.0000 1.5451 54.2366 0.3508 -0.0000 -0.0000 0.0000 88.9378 -5.5004 9.3390 -17.2228 27.1505 -4.1885 0.0000 -0.0000 -2.1836 -17.1437 29.7176 -8.6943 7.1250 -0.0000 -0.0000 7.9828 0.6080 8.1462
12.8858 18.1717 -18.3442 9.5051 1.0948 1.1427 0.0000 0.0000 0.0000 -31.0394 -0.6254 4.2488 0.7124 5.3942 15.0364 0.2592 -4.8472 -9.1597 0.6952 -5.3300 -14.8522 0.0000 0.0000 0.0000 4.4504 13.8843 -23.5688 -1.8890 -8.6308 24.6472 0.2714 -12.7464 -14.0881 -0.0752 -1.7696 4.8694 -10.5370 -0.3560 1.6218 -1.6292 -0.6011 1.1394 4.2156 -0.3566 0.3690 -3.6041 -1.9900 -16.2602 0.9012 -2.0346 22.7336 0.6498 -1.1483 9.9664 -0.0000 -0.0000 0.0000 -83.8993 -5.5785 32.6086 31.3736 -42.0420 -12.3193 -0.0000 0.0000 -18.0435 30.6043 20.8852 11.9074 -7.1250 0.0000 -0.0000 2.1282 53.8760 0.4646 -0.0000 -0.0000 0.0000 88.2554 -4.2098 10.3265 -17.1724 27.0845 -4.1655 0.0000 -0.0000 -2.6037 -17.4815 29.9360 -8.9319 7.1250 -0.0000 -0.0000 7.8103 0.8865 8.0046
12.8744 18.1809 -18.1798 9.3605 1.1775 1.1936 0.0000 0.0000 0.0000 -30.7918 -0.3165 5.2983 0.6158 5.0222 13.9718 0.2302 -4.7848 -8.6632 0.7146 -5.4021 -15.0591 0.0000 0.0000 0.0000 4.2361 15.5913 -22.8003 -1.5341 -7.8196 22.1674 0.4123 -13.8763 -13.7294 -0.0002 -0.0869 0.2388 -10.2163 -0.2717 1.5508 -1.6539 -0.5065 0.7243 4.0127 -0.2745 -0.0435 -3.8086 -2.0906 -14.5721 1.1765 -2.2608 22.4759 0.7645 -1.2441 9.5680 -0.0000 -0.0000 0.0000 -83.4277 -5.0085 33.3733 32.2712 -42.7623 -12.9246 -0.0000 0.0000 -17.9203 30.9909 20.5503 11.9061 -7.1250 0.0000 -0.0000 2.5999 53.5815 0.5489 -0.0000 -0.0000 0.0000 88.2782 -5.0103 10.4151 -17.3833 27.3603 -4.2620 0.0000 -0.0000 -2.9887 -17.9057 29.6088 -9.0699 7.1250 -0.0000 -0.0000 7.5294 0.6314 7.6783
12.8670 18.1824 -18.0030 9.3375 1.5219 1.1458 0.0000 0.0000 0.0000 -30.6254 0.1174 6.4098 0.5449 4.7291 13.1375 0.2120 -5.1326 -8.4098 0.9279 -6.1365 -17.1811 0.0000 0.0000 0.0000 3.8294 17.2105 -21.8245 -1.2447 -7.0738 19.9343 0.4288 -14.6193 -15.0126 -0.0191 -0.8929 2.4542 -9.8803 -0.1060 1.5103 -1.8737 -0.2656 0.8768 3.5939 -0.1643 0.1001 -3.4265 -2.3365 -15.0823 1.2224 -2.6947 22.6914 0.6564 -1.4054 9.7461 0.0000 -0.0000 0.0000 -83.0408 -5.4568 34.1771 33.1788 -43.4671 -13.5449 -0.0000 0.0000 -17.7048 30.4400 20.2636 11.5038 -7.1250 0.0000 -0.0000 2.0642 53.1493 0.4139 0.0000 -0.0000 0.0000 88.8199 -4.8104 9.5437 -17.7345 27.8159 -4.4247 0.0000 -0.0000 -2.9003 -17.8772 29.1186 -8.9204 7.1250 -0.0000 -0.0000 7.4938 0.1314 7.5759
